# File created by Blade
# Date/Time:  Wed Sep 24 19:10:19 2014
# Frame Rate: 120.000 fps
#------------------------------------------------------
:FULLY-SPECIFIED
:DEGREES
1681
root -8.375046 33.218713 -4.977814 5.872843 24.970143 17.787944
Spine 3.759849 5.707631 -9.763448
Head 1.520346 -0.152125 3.483961
LeftShoulder -3.963758 9.938414 14.284258
LeftArm 29.685723 -19.952035 -64.225303
LeftForeArm -0.490047 -0.000000 54.012366
LeftHand -33.170526 0.000000 51.716314
LeftHandThumb1 -26.253704 0.000000 33.147579
RightShoulder -15.454217 11.106443 -16.328005
RightArm -14.723422 -27.618454 90.087018
RightForeArm -21.676411 -0.000000 24.459152
RightHand -5.185405 -0.000000 8.985159
RightHandThumb1 -24.326973 -0.000000 -32.862282
LeftUpLeg -94.239089 20.533827 -9.565895
LeftLeg 56.515345 -0.000000 -0.000000
LeftFoot 37.993130 14.448918 -18.590785
LeftToeBase 8.126541 -0.000000 -0.000000
RightUpLeg -7.782847 -16.122464 -9.423143
RightLeg 19.782901 -0.000000 -0.000000
RightFoot -14.481441 -24.190259 -4.789741
RightToeBase 1.158490 -0.000000 -0.000000
1682
root -8.356678 33.220750 -4.972476 5.933776 24.940329 17.803350
Spine 3.642415 5.728898 -9.738763
Head 1.562100 -0.101591 3.423395
LeftShoulder -3.986976 9.974831 14.251136
LeftArm 29.625704 -19.875125 -64.134837
LeftForeArm -0.633067 -0.000000 53.972790
LeftHand -33.236172 -0.000000 51.701656
LeftHandThumb1 -26.253704 0.000000 33.147579
RightShoulder -15.498724 11.070739 -16.349682
RightArm -14.707690 -27.629773 90.049320
RightForeArm -21.623552 0.000000 24.421927
RightHand -5.115817 0.000000 9.042258
RightHandThumb1 -24.326973 -0.000000 -32.862282
LeftUpLeg -94.482681 20.508446 -9.998563
LeftLeg 59.568139 -0.000000 -0.000000
LeftFoot 37.847109 14.549472 -18.646697
LeftToeBase 7.835007 -0.000000 -0.000000
RightUpLeg -7.853955 -16.120377 -9.449864
RightLeg 19.856651 -0.000000 -0.000000
RightFoot -14.448123 -24.273385 -4.882938
RightToeBase 1.124489 -0.000000 -0.000000
1683
root -8.335868 33.223528 -4.972039 6.008812 24.939274 17.854043
Spine 3.564392 5.719920 -9.733555
Head 1.538131 -0.031684 3.356936
LeftShoulder -4.047322 10.054448 14.240048
LeftArm 29.711706 -19.780558 -64.147994
LeftForeArm -0.670506 0.000000 53.835875
LeftHand -33.111967 -0.000000 51.670002
LeftHandThumb1 -26.253704 0.000000 33.147579
RightShoulder -15.519917 11.067711 -16.384345
RightArm -14.731722 -27.599764 90.027256
RightForeArm -21.596249 -0.000000 24.438380
RightHand -5.084714 0.000000 9.104058
RightHandThumb1 -24.326973 -0.000000 -32.862282
LeftUpLeg -94.697992 20.437060 -10.470793
LeftLeg 62.556821 -0.000000 -0.000000
LeftFoot 37.631819 14.720046 -18.597374
LeftToeBase 7.798459 -0.000000 -0.000000
RightUpLeg -7.926603 -16.197355 -9.505496
RightLeg 19.904744 -0.000000 -0.000000
RightFoot -14.473399 -24.226041 -4.887636
RightToeBase 1.189575 -0.000000 -0.000000
1684
root -8.321083 33.223501 -4.970294 6.058782 24.947673 17.824529
Spine 3.487801 5.703119 -9.634491
Head 1.497309 0.034670 3.259294
LeftShoulder -4.108319 10.120670 14.191384
LeftArm 29.789972 -19.704875 -64.161187
LeftForeArm -0.684861 -0.000000 53.738780
LeftHand -33.098233 -0.000000 51.608194
LeftHandThumb1 -26.253704 0.000000 33.147579
RightShoulder -15.531675 11.060251 -16.447698
RightArm -14.758341 -27.577716 90.014175
RightForeArm -21.575279 -0.000000 24.465223
RightHand -5.046516 -0.000000 9.118637
RightHandThumb1 -24.326973 -0.000000 -32.862282
LeftUpLeg -95.017939 20.345880 -11.050942
LeftLeg 65.548590 -0.000000 -0.000000
LeftFoot 37.183769 15.606294 -18.329033
LeftToeBase 8.070541 -0.000000 -0.000000
RightUpLeg -7.996069 -16.266723 -9.478653
RightLeg 19.942138 -0.000000 -0.000000
RightFoot -14.451317 -24.222808 -4.953947
RightToeBase 1.200315 -0.000000 -0.000000
1685
root -8.299077 33.226158 -4.970725 6.133627 24.900070 17.869118
Spine 3.424708 5.724374 -9.638458
Head 1.407057 0.131845 3.257566
LeftShoulder -4.173921 10.132727 14.170071
LeftArm 29.814478 -19.614244 -64.150767
LeftForeArm -0.730850 -0.000000 53.662604
LeftHand -33.075876 -0.000000 51.756204
LeftHandThumb1 -26.253704 0.000000 33.147579
RightShoulder -15.496584 11.024849 -16.444912
RightArm -14.766951 -27.513168 89.952473
RightForeArm -21.587610 0.000000 24.555514
RightHand -5.048321 -0.000000 9.166137
RightHandThumb1 -24.326973 -0.000000 -32.862282
LeftUpLeg -95.210737 20.304053 -11.506566
LeftLeg 68.409120 -0.000000 -0.000000
LeftFoot 36.857669 16.247490 -18.220464
LeftToeBase 7.808688 -0.000000 -0.000000
RightUpLeg -8.059782 -16.290414 -9.537343
RightLeg 19.960588 -0.000000 -0.000000
RightFoot -14.446067 -24.230269 -5.018799
RightToeBase 1.240201 -0.000000 -0.000000
1686
root -8.282070 33.227447 -4.968037 6.159299 24.853033 17.828990
Spine 3.379656 5.781453 -9.544898
Head 1.322587 0.172502 3.224863
LeftShoulder -4.145123 10.018992 14.184942
LeftArm 29.662072 -19.559281 -64.194729
LeftForeArm -0.729349 -0.000000 53.663319
LeftHand -33.055830 -0.000000 51.832931
LeftHandThumb1 -26.253704 0.000000 33.147579
RightShoulder -15.463612 11.021709 -16.465419
RightArm -14.826077 -27.443703 89.904948
RightForeArm -21.592667 0.000000 24.654811
RightHand -5.076815 -0.000000 9.159225
RightHandThumb1 -24.326973 -0.000000 -32.862282
LeftUpLeg -95.360418 20.287510 -11.847149
LeftLeg 71.161444 -0.000000 -0.000000
LeftFoot 36.494280 17.015963 -18.067640
LeftToeBase 7.485156 -0.000000 -0.000000
RightUpLeg -8.100231 -16.331234 -9.512924
RightLeg 19.953309 -0.000000 -0.000000
RightFoot -14.397024 -24.213641 -5.121783
RightToeBase 1.244013 -0.000000 -0.000000
1687
root -8.275643 33.222547 -4.965924 6.164161 24.801230 17.657601
Spine 3.314464 5.862305 -9.310149
Head 1.198855 0.205541 3.167735
LeftShoulder -4.120877 9.977641 14.165072
LeftArm 29.603980 -19.524341 -64.251079
LeftForeArm -0.745077 -0.000000 53.678407
LeftHand -33.000701 -0.000000 51.820882
LeftHandThumb1 -26.253704 0.000000 33.147579
RightShoulder -15.460691 11.001683 -16.535906
RightArm -14.858493 -27.425062 89.870790
RightForeArm -21.617781 -0.000000 24.735834
RightHand -5.074553 0.000000 9.127977
RightHandThumb1 -24.326973 -0.000000 -32.862282
LeftUpLeg -95.548734 20.281266 -12.052457
LeftLeg 73.836185 -0.000000 -0.000000
LeftFoot 36.139347 17.853246 -17.709728
LeftToeBase 7.149645 -0.000000 -0.000000
RightUpLeg -8.188153 -16.350641 -9.337497
RightLeg 19.944599 -0.000000 -0.000000
RightFoot -14.365079 -24.192383 -5.172151
RightToeBase 1.278083 -0.000000 -0.000000
1688
root -8.258927 33.222048 -4.963091 6.160219 24.715287 17.597100
Spine 3.312324 5.984004 -9.203662
Head 1.076340 0.203164 3.163621
LeftShoulder -4.035916 9.836499 14.263897
LeftArm 29.422316 -19.541215 -64.450812
LeftForeArm -0.692218 -0.000000 53.723702
LeftHand -32.886786 -0.000000 51.487267
LeftHandThumb1 -26.253704 0.000000 33.147579
RightShoulder -15.486379 10.976301 -16.580133
RightArm -14.855639 -27.443919 89.829608
RightForeArm -21.618394 -0.000000 24.805014
RightHand -5.093739 0.000000 9.067004
RightHandThumb1 -24.326973 -0.000000 -32.862282
LeftUpLeg -95.621758 20.289816 -12.291291
LeftLeg 76.451572 -0.000000 -0.000000
LeftFoot 35.790712 18.610944 -17.378104
LeftToeBase 6.849525 -0.000000 -0.000000
RightUpLeg -8.210417 -16.345885 -9.306265
RightLeg 19.930172 -0.000000 -0.000000
RightFoot -14.360307 -24.144886 -5.194746
RightToeBase 1.236067 -0.000000 -0.000000
1689
root -8.248128 33.219081 -4.960222 6.154333 24.642309 17.484979
Spine 3.301915 6.066816 -9.045766
Head 0.950650 0.223068 3.128587
LeftShoulder -4.026354 9.836475 14.246075
LeftArm 29.476217 -19.620930 -64.633561
LeftForeArm -0.574339 -0.000000 53.742724
LeftHand -32.986497 -0.000000 51.684866
LeftHandThumb1 -26.253704 0.000000 33.147579
RightShoulder -15.466189 10.960777 -16.631656
RightArm -14.854714 -27.461129 89.801365
RightForeArm -21.626547 -0.000000 24.853298
RightHand -5.076645 -0.000000 8.982131
RightHandThumb1 -24.326973 -0.000000 -32.862282
LeftUpLeg -95.678342 20.294287 -12.396657
LeftLeg 78.956073 -0.000000 -0.000000
LeftFoot 35.533137 19.276564 -17.479699
LeftToeBase 6.375258 -0.000000 -0.000000
RightUpLeg -8.256480 -16.337069 -9.211724
RightLeg 19.919312 -0.000000 -0.000000
RightFoot -14.355402 -24.091348 -5.210390
RightToeBase 1.277526 -0.000000 -0.000000
1690
root -8.237031 33.216248 -4.956414 6.145480 24.543468 17.385849
Spine 3.304000 6.141037 -8.924907
Head 0.814585 0.266337 3.136294
LeftShoulder -4.042084 9.821921 14.269757
LeftArm 29.499541 -19.683894 -64.836245
LeftForeArm -0.455461 -0.000000 53.773047
LeftHand -33.015147 0.000000 51.804383
LeftHandThumb1 -26.253704 0.000000 33.147579
RightShoulder -15.440986 10.947118 -16.661534
RightArm -14.814372 -27.508199 89.769787
RightForeArm -21.604681 -0.000000 24.881126
RightHand -5.121801 -0.000000 8.937176
RightHandThumb1 -24.326973 -0.000000 -32.862282
LeftUpLeg -95.694977 20.339547 -12.459312
LeftLeg 81.383370 -0.000000 -0.000000
LeftFoot 35.468042 19.543815 -17.801874
LeftToeBase 5.903616 -0.000000 -0.000000
RightUpLeg -8.297482 -16.240876 -9.135377
RightLeg 19.913828 -0.000000 -0.000000
RightFoot -14.353713 -24.083320 -5.196606
RightToeBase 1.255473 -0.000000 -0.000000
1691
root -8.229892 33.212493 -4.954307 6.143063 24.459413 17.256377
Spine 3.288510 6.186497 -8.769877
Head 0.710226 0.309645 3.102870
LeftShoulder -4.033826 9.789999 14.283060
LeftArm 29.453892 -19.740040 -64.988343
LeftForeArm -0.334793 0.000000 53.853688
LeftHand -33.080134 -0.000000 51.876825
LeftHandThumb1 -26.253704 0.000000 33.147579
RightShoulder -15.428589 10.932485 -16.707540
RightArm -14.742622 -27.593812 89.743883
RightForeArm -21.614289 -0.000000 24.871093
RightHand -5.149435 -0.000000 8.899047
RightHandThumb1 -24.326973 -0.000000 -32.862282
LeftUpLeg -95.705437 20.378945 -12.463704
LeftLeg 83.697395 -0.000000 -0.000000
LeftFoot 35.501059 19.527533 -18.154700
LeftToeBase 6.411113 -0.000000 -0.000000
RightUpLeg -8.364741 -16.149630 -9.019537
RightLeg 19.914996 -0.000000 -0.000000
RightFoot -14.367201 -24.055331 -5.143464
RightToeBase 1.276950 -0.000000 -0.000000
